HIERARCHY
ROOT Hips
{
	OFFSET -0.001795 -0.223333 0.028219
	CHANNELS 6 Xposition Yposition Zposition Zrotation Yrotation Xrotation 
	JOINT LeftUpLeg
	{
		OFFSET 0.069520 -0.091406 -0.006815
		CHANNELS 3 Zrotation Yrotation Xrotation
		JOINT LeftLeg
		{
			OFFSET 0.034277 -0.375199 -0.004496
			CHANNELS 3 Zrotation Yrotation Xrotation
			JOINT LeftFoot
			{
				OFFSET -0.013596 -0.397961 -0.043693
				CHANNELS 3 Zrotation Yrotation Xrotation
				JOINT LeftToe
				{
					OFFSET 0.026358 -0.055791 0.119288
					CHANNELS 3 Zrotation Yrotation Xrotation
					End Site
					{
						OFFSET 0.000000 0.000000 0.000000
					}
				}
			}
		}
	}
	JOINT RightUpLeg
	{
		OFFSET -0.067670 -0.090522 -0.004320
		CHANNELS 3 Zrotation Yrotation Xrotation
		JOINT RightLeg
		{
			OFFSET -0.038290 -0.382569 -0.008850
			CHANNELS 3 Zrotation Yrotation Xrotation
			JOINT RightFoot
			{
				OFFSET 0.015774 -0.398415 -0.042312
				CHANNELS 3 Zrotation Yrotation Xrotation
				JOINT RightToe
				{
					OFFSET -0.025372 -0.048144 0.123348
					CHANNELS 3 Zrotation Yrotation Xrotation
					End Site
					{
						OFFSET 0.000000 0.000000 0.000000
					}
				}
			}
		}
	}
	JOINT Spine
	{
		OFFSET -0.002533 0.108963 -0.026696
		CHANNELS 3 Zrotation Yrotation Xrotation
		JOINT Spine1
		{
			OFFSET 0.005487 0.135180 0.001092
			CHANNELS 3 Zrotation Yrotation Xrotation
			JOINT Spine2
			{
				OFFSET 0.001457 0.052922 0.025425
				CHANNELS 3 Zrotation Yrotation Xrotation
				JOINT Neck
				{
					OFFSET -0.002778 0.213870 -0.042857
					CHANNELS 3 Zrotation Yrotation Xrotation
					JOINT Head
					{
						OFFSET 0.005152 0.064970 0.051349
						CHANNELS 3 Zrotation Yrotation Xrotation
						End Site
						{
							OFFSET 0.000000 0.000000 0.000000
						}
					}
				}
				JOINT LeftShoulder
				{
					OFFSET 0.078845 0.121749 -0.034090
					CHANNELS 3 Zrotation Yrotation Xrotation
					JOINT LeftArm
					{
						OFFSET 0.090977 0.030469 -0.008868
						CHANNELS 3 Zrotation Yrotation Xrotation
						JOINT LeftForeArm
						{
							OFFSET 0.259612 -0.012772 -0.027456
							CHANNELS 3 Zrotation Yrotation Xrotation
							JOINT LeftHand
							{
								OFFSET 0.249234 0.008986 -0.001171
								CHANNELS 3 Zrotation Yrotation Xrotation
								End Site
								{
									OFFSET 0.000000 0.000000 0.000000
								}
							}
						}
					}
				}
				JOINT RightShoulder
				{
					OFFSET -0.081759 0.118833 -0.038615
					CHANNELS 3 Zrotation Yrotation Xrotation
					JOINT RightArm
					{
						OFFSET -0.096012 0.032551 -0.009143
						CHANNELS 3 Zrotation Yrotation Xrotation
						JOINT RightForeArm
						{
							OFFSET -0.253742 -0.013329 -0.021401
							CHANNELS 3 Zrotation Yrotation Xrotation
							JOINT RightHand
							{
								OFFSET -0.255298 0.007772 -0.005559
								CHANNELS 3 Zrotation Yrotation Xrotation
								End Site
								{
									OFFSET 0.000000 0.000000 0.000000
								}
							}
						}
					}
				}
			}
		}
	}
}
MOTION
Frames: 10
Frame Time: 0.050000
-0.028940 0.948756 -0.107561 3.514400 -4.515603 21.936437 4.533326 -1.324850 -25.653352 3.806921 -0.051532 -5.135580 -1.030837 4.671210 20.160279 0.000000 0.000000 0.000000 -4.378202 2.016451 -24.181413 -13.382758 -0.269063 -9.714485 4.558081 -1.152367 21.620626 0.000000 0.000000 0.000000 1.364529 -0.761126 13.119294 1.998983 -0.824962 -0.416476 -12.052591 9.597710 -0.199830 22.942471 -16.175371 -5.130157 0.000000 0.000000 0.000000 36.209155 -41.069175 5.769014 34.909760 -37.867627 -13.731792 22.488480 2.489200 0.368473 0.000000 0.000000 0.000000 -27.010108 32.248672 5.608525 -13.091668 26.550016 -2.790623 -8.554044 -2.146962 0.349654 0.000000 0.000000 0.000000 
-0.030129 0.948896 -0.108194 3.429269 -4.293131 21.738111 4.757445 -1.295136 -25.569310 3.653562 -0.045959 -5.078097 -1.027345 4.769662 20.392210 0.000000 0.000000 0.000000 -4.124269 2.034094 -24.154827 -13.364155 -0.229800 -9.467565 4.303681 -1.457654 21.418208 0.000000 0.000000 0.000000 1.362811 -0.769852 13.267609 1.957931 -0.815152 -0.258553 -12.276130 9.334312 -0.447914 21.976250 -15.615590 -4.619666 0.000000 0.000000 0.000000 35.989627 -41.101012 5.842728 35.111265 -37.942799 -13.822659 22.404317 2.651605 0.402479 0.000000 0.000000 0.000000 -26.127481 32.191718 5.853202 -12.059818 26.899758 -2.716659 -9.975519 -0.839760 0.347548 0.000000 0.000000 0.000000 
-0.031123 0.949089 -0.108598 3.210536 -4.373359 21.708361 5.067332 -1.231170 -25.436681 3.644556 -0.039255 -5.176481 -1.147186 4.635141 20.630925 0.000000 0.000000 0.000000 -3.872775 2.073934 -24.193883 -13.020504 -0.225988 -9.415897 4.101005 -1.857771 21.505394 0.000000 0.000000 0.000000 1.340440 -0.768200 13.370257 2.049698 -0.840311 -0.681801 -12.397325 9.228354 -0.225772 21.157536 -15.025387 -4.504686 0.000000 0.000000 0.000000 35.349683 -41.333494 5.961921 34.980785 -37.939231 -13.713914 21.926360 2.462025 0.370385 0.000000 0.000000 0.000000 -25.483769 32.101686 6.001805 -11.122574 27.271721 -2.653946 -11.086959 0.720454 0.288212 0.000000 0.000000 0.000000 
-0.032057 0.949129 -0.108689 2.925359 -4.440261 21.468741 5.342180 -1.166087 -25.005273 3.774948 -0.040329 -5.282783 -1.313339 4.468406 20.991639 0.000000 0.000000 0.000000 -3.531477 2.121570 -24.209420 -12.694397 -0.163448 -8.973051 3.697702 -2.337251 20.938404 0.000000 0.000000 0.000000 1.355544 -0.760955 13.191056 2.070111 -0.854905 -0.522415 -12.407350 9.044424 -0.394542 20.452551 -14.887658 -3.504730 0.000000 0.000000 0.000000 34.391433 -41.951332 6.188872 34.696340 -38.222757 -13.679704 21.313143 2.403805 0.367061 0.000000 0.000000 0.000000 -24.166980 32.603268 6.470364 -10.476342 27.616155 -2.643577 -11.924394 1.484762 0.252787 0.000000 0.000000 0.000000 
-0.032850 0.948828 -0.108572 2.631611 -4.612167 21.535299 5.668699 -1.095723 -24.781824 3.826745 -0.030025 -5.479351 -1.274165 4.502202 21.078517 0.000000 0.000000 0.000000 -3.389097 2.167360 -24.406403 -12.320409 -0.148738 -8.816261 3.497375 -2.720160 20.949945 0.000000 0.000000 0.000000 1.315629 -0.746191 13.087071 2.073636 -0.848268 -0.712787 -12.287623 8.724240 -0.373142 19.804291 -14.614750 -2.872653 0.000000 0.000000 0.000000 33.412543 -42.334449 6.408802 34.222149 -38.387485 -13.467324 20.874541 2.258451 0.351856 0.000000 0.000000 0.000000 -23.708751 32.970948 6.703279 -9.832112 27.796104 -2.615121 -11.975202 2.209387 0.193841 0.000000 0.000000 0.000000 
-0.033573 0.948643 -0.108344 2.402804 -4.598762 21.344392 5.974253 -1.031525 -24.231656 3.713056 -0.010112 -5.677874 -1.421988 4.255531 20.988916 0.000000 0.000000 0.000000 -3.067312 2.219973 -24.532089 -12.276587 -0.080238 -8.347063 3.273344 -3.010880 20.691824 0.000000 0.000000 0.000000 1.319903 -0.739103 12.922536 2.149734 -0.889339 -0.517417 -12.369403 8.761955 -0.425781 19.934222 -14.892761 -2.496833 0.000000 0.000000 0.000000 32.622054 -42.541979 6.630003 33.383474 -38.813309 -13.404677 21.198428 1.848020 0.299145 0.000000 0.000000 0.000000 -23.009632 33.167662 6.923386 -8.972236 28.056184 -2.517356 -11.908396 2.526465 0.167648 0.000000 0.000000 0.000000 
-0.034101 0.948424 -0.107922 2.063701 -4.850644 21.051288 6.213806 -0.962751 -23.545792 3.812477 -0.013777 -5.728963 -1.409717 4.193513 20.919476 0.000000 0.000000 0.000000 -2.940588 2.232332 -24.347861 -11.871879 -0.091121 -8.362524 3.427573 -2.942794 21.011406 0.000000 0.000000 0.000000 1.455434 -0.753972 12.777331 1.844611 -0.755395 -0.570591 -12.293585 9.154813 -0.083952 20.138478 -15.064479 -2.615114 0.000000 0.000000 0.000000 31.473590 -42.724132 6.907735 31.919267 -39.152103 -13.094542 22.487894 0.515591 0.093069 0.000000 0.000000 0.000000 -22.197811 33.388107 7.146632 -8.413086 28.295483 -2.455590 -11.364915 2.540682 0.156520 0.000000 0.000000 0.000000 
-0.034523 0.948205 -0.107197 1.753150 -5.019088 20.741747 6.668030 -0.869084 -23.119250 3.695257 -0.027280 -5.472566 -1.192312 4.279916 20.251908 0.000000 0.000000 0.000000 -2.934568 2.232015 -24.238776 -11.421738 -0.047944 -7.974252 3.453977 -2.895860 20.885579 0.000000 0.000000 0.000000 1.604833 -0.771325 12.609820 1.620272 -0.659866 -0.540190 -12.255351 9.734463 0.092603 20.579572 -15.121226 -3.439236 0.000000 0.000000 0.000000 29.882588 -42.150035 7.315299 30.357308 -40.006482 -13.050563 24.655215 -1.368963 -0.262049 0.000000 0.000000 0.000000 -20.954625 33.473455 7.467020 -7.726485 28.445393 -2.350016 -11.879064 3.305206 0.109379 0.000000 0.000000 0.000000 
-0.034840 0.947660 -0.105966 1.462212 -5.048382 20.342371 6.816475 -0.830431 -22.510262 3.932247 -0.046683 -5.406343 -1.288567 4.044185 19.939167 0.000000 0.000000 0.000000 -2.869692 2.212470 -23.917503 -11.110970 -0.039234 -7.860594 3.451636 -2.904480 20.856489 0.000000 0.000000 0.000000 1.683894 -0.771071 12.325278 1.675271 -0.690174 -0.380164 -12.168005 10.248423 0.166201 20.865564 -15.374352 -3.512739 0.000000 0.000000 0.000000 27.966261 -41.769782 7.785884 27.965790 -40.220537 -12.399757 27.274697 -3.999720 -0.883707 0.000000 0.000000 0.000000 -19.551735 33.661261 7.878089 -6.810657 28.658559 -2.215979 -12.699378 4.329163 0.037021 0.000000 0.000000 0.000000 
-0.035202 0.947204 -0.104316 1.163305 -5.085858 19.591247 7.065115 -0.770184 -21.589394 3.560189 -0.050160 -5.072059 -1.038897 4.240581 19.377040 0.000000 0.000000 0.000000 -2.605767 2.160138 -23.021541 -10.825283 -0.031313 -7.774895 3.601381 -2.667884 20.813270 0.000000 0.000000 0.000000 2.011743 -0.803918 11.853330 1.298222 -0.527471 -0.420735 -11.774228 10.735146 0.419319 20.927577 -15.340071 -3.860116 0.000000 0.000000 0.000000 25.433505 -41.063636 8.316371 25.496980 -41.303082 -12.016657 29.679408 -7.146615 -1.740842 0.000000 0.000000 0.000000 -17.277322 33.303174 8.387189 -5.604415 29.530794 -2.105409 -14.143952 6.008954 -0.113974 0.000000 0.000000 0.000000 
